 http://img849.imageshack.us/img849/1741/daughtryouttamyheadmusi.jpg



Format                                   : MPEG-4
Format profile                           : Base Media / Version 2
Codec ID                                 : mp42
File size                                : 63.3 MiB
Duration                                 : 3mn 24s
Overall bit rate mode                    : Variable
Overall bit rate                         : 2 592 Kbps
Encoded date                             : UTC 2012-04-10 23:40:37
Tagged date                              : UTC 2012-04-10 23:40:37
gsst                                     : 0
gstd                                     : 204868
gssd                                     : BADC23424HH1334419114577339
gshh                                     :

Video
ID                                       : 1
Format                                   : AVC
Format/Info                              : Advanced Video Codec
Format profile                           : High@L3.1
Format settings, CABAC                   : Yes
Format settings, ReFrames                : 1 frame
Codec ID                                 : avc1
Codec ID/Info                            : Advanced Video Coding
Duration                                 : 3mn 24s
Bit rate                                 : 2 437 Kbps
Maximum bit rate                         : 6 631 Kbps
Width                                    : 1 280 pixels
Height                                   : 720 pixels
Display aspect ratio                     : 16:9
Frame rate mode                          : Constant
Frame rate                               : 23.976 fps
Color space                              : YUV
Chroma subsampling                       : 4:2:0
Bit depth                                : 8 bits
Scan type                                : Progressive
Bits/(Pixel*Frame)                       : 0.110
Stream size                              : 59.5 MiB (94%)
Tagged date                              : UTC 2012-04-10 23:40:37

Audio
ID                                       : 2
Format                                   : AAC
Format/Info                              : Advanced Audio Codec
Format profile                           : LC
Codec ID                                 : 40
Duration                                 : 3mn 24s
Bit rate mode                            : Variable
Bit rate                                 : 152 Kbps
Maximum bit rate                         : 232 Kbps
Channel(s)                               : 2 channels
Channel positions                        : Front: L R
Sampling rate                            : 44.1 KHz
Compression mode                         : Lossy
Stream size                              : 3.71 MiB (6%)
Title                                    : IsoMedia File Produced by Google, 5-11-2011
Encoded date                             : UTC 2012-04-10 23:40:37
Tagged date                              : UTC 2012-04-10 23:40:37

